<svg width="133" height="145" viewBox="0 0 133 145" fill="none" xmlns="http://www.w3.org/2000/svg">
<path d="M18 1C18 0.447716 18.4477 0 19 0H23.3333H66V100H18V4.7619V1Z" fill="#BEBDBD"/>
<path d="M66 0H109.556H114C114.552 0 115 0.447715 115 1V4.7619V95.2381V100H109.556H66V0Z" fill="#F28E00"/>
<path d="M66.4648 144.796L-1.08569e-05 95.1525L66.4648 95.152L66.4648 144.796Z" fill="#BEBDBD"/>
<path d="M66.5352 144.796L133 95.1525L66.5352 95.152L66.5352 144.796Z" fill="#F28E00"/>
<path d="M64.6634 84.4545V29.9091H68.1577V84.4545H64.6634ZM75.5938 46.8267C75.3665 44.8097 74.429 43.2472 72.7812 42.1392C71.1335 41.017 69.0597 40.456 66.5597 40.456C64.7699 40.456 63.2216 40.7401 61.9148 41.3082C60.608 41.8622 59.5923 42.6293 58.8679 43.6094C58.1577 44.5753 57.8026 45.6761 57.8026 46.9119C57.8026 47.9489 58.044 48.8437 58.527 49.5966C59.0241 50.3494 59.6705 50.9815 60.4659 51.4929C61.2756 51.9901 62.142 52.4091 63.0653 52.75C63.9886 53.0767 64.8764 53.3466 65.7287 53.5597L69.9901 54.6676C71.3821 55.0085 72.8097 55.4702 74.2727 56.0526C75.7358 56.6349 77.0923 57.402 78.3423 58.3537C79.5923 59.3054 80.6009 60.4844 81.3679 61.8906C82.1491 63.2969 82.5398 64.9801 82.5398 66.9403C82.5398 69.4119 81.9006 71.6065 80.6222 73.5241C79.358 75.4418 77.5185 76.9545 75.1037 78.0625C72.7031 79.1705 69.7983 79.7244 66.3892 79.7244C63.1222 79.7244 60.2955 79.206 57.9091 78.169C55.5227 77.1321 53.6548 75.6619 52.3054 73.7585C50.956 71.8409 50.2102 69.5682 50.0682 66.9403H56.6733C56.8011 68.517 57.3125 69.831 58.2074 70.8821C59.1165 71.919 60.2741 72.6932 61.6804 73.2045C63.1009 73.7017 64.6562 73.9503 66.3466 73.9503C68.2074 73.9503 69.8622 73.6591 71.3111 73.0767C72.7741 72.4801 73.9247 71.6562 74.7628 70.6051C75.6009 69.5398 76.0199 68.2969 76.0199 66.8764C76.0199 65.5838 75.6506 64.5256 74.9119 63.7017C74.1875 62.8778 73.2003 62.196 71.9503 61.6562C70.7145 61.1165 69.3153 60.6406 67.7528 60.2287L62.5966 58.8224C59.1023 57.8707 56.3324 56.4716 54.2869 54.625C52.2557 52.7784 51.2401 50.3352 51.2401 47.2955C51.2401 44.7812 51.9219 42.5866 53.2855 40.7116C54.6491 38.8366 56.4957 37.3807 58.8253 36.3438C61.1548 35.2926 63.7827 34.767 66.7088 34.767C69.6634 34.767 72.2699 35.2855 74.5284 36.3224C76.8011 37.3594 78.5909 38.7869 79.8977 40.6051C81.2045 42.4091 81.8864 44.483 81.9432 46.8267H75.5938Z" fill="#F5F5F5"/>
</svg>
