<?xml version="1.0" encoding="utf-8"?>
<!-- Generator: Adobe Illustrator 27.0.0, SVG Export Plug-In . SVG Version: 6.00 Build 0)  -->
<svg version="1.1" id="Layer_1" xmlns="http://www.w3.org/2000/svg" xmlns:xlink="http://www.w3.org/1999/xlink" x="0px" y="0px"
	 viewBox="0 0 120 120" style="enable-background:new 0 0 120 120;" xml:space="preserve">
<style type="text/css">
	.st0{fill:#848688;}
	.st1{fill:#EB8E23;}
	.st2{fill:#232F38;}
</style>
<g id="Layer_1_00000035519414177582534020000004339913713381490066_">
</g>
<g id="Layer_2_00000070116418315718386120000000998245786799033229_">
</g>
<g id="Layer_3">
</g>
<g id="Layer_4">
</g>
<g id="Layer_5">
</g>
<g id="Layer_6">
</g>
<g id="Layer_7">
</g>
<g id="Layer_8">
</g>
<g id="Layer_9">
	<g id="Group_210" transform="translate(-34.979 -35.526)">
		<path class="st0" d="M94.9,95L69.1,55.7c-0.2-0.2-0.1-0.5,0.1-0.7s0.5-0.1,0.7,0.1L95,93.3l29.7-30.9c0.2-0.2,0.5-0.2,0.7,0
			s0.2,0.5,0,0.7L94.9,95z"/>
		<path class="st0" d="M79.6,135.5c-0.1,0-0.1,0-0.2,0c-0.3-0.1-0.4-0.4-0.3-0.6l15.7-41.6l30.8,30.6c0.2,0.2,0.2,0.5,0,0.7
			s-0.5,0.2-0.7,0L95.2,95.1L80,135.2C80,135.4,79.8,135.5,79.6,135.5z"/>
		<path class="st0" d="M57.7,99.1c-0.2,0-0.5-0.2-0.5-0.4c0-0.3,0.2-0.5,0.4-0.6l37.3-4.5l42.1-0.2l0,0c0.3,0,0.5,0.2,0.5,0.5
			s-0.2,0.5-0.5,0.5l-42,0.3L57.7,99.1L57.7,99.1z"/>
		<path id="Path_193" class="st1" d="M95,84.9c-5.1,0-9.2,4.1-9.2,9.2s4.1,9.2,9.2,9.2s9.2-4.1,9.2-9.2
			C104.2,89.1,100.1,84.9,95,84.9z"/>
		<path id="Path_194" class="st2" d="M68.8,45c-4.4,0-8,3.6-8,8s3.6,8,8,8s8-3.6,8-8l0,0C76.8,48.5,73.2,45,68.8,45z"/>
		<path id="Path_195" class="st2" d="M138.6,88c-3.3,0-5.9,2.7-5.9,5.9c0,3.3,2.7,5.9,5.9,5.9c3.3,0,5.9-2.7,5.9-5.9
			S141.8,88,138.6,88z"/>
		<path id="Path_196" class="st2" d="M79.6,130.6c-3.3,0-5.9,2.7-5.9,5.9s2.7,5.9,5.9,5.9c3.3,0,5.9-2.7,5.9-5.9
			S82.8,130.6,79.6,130.6z"/>
		<path id="Path_197" class="st2" d="M123.1,56.8c-3.3,0-5.9,2.7-5.9,5.9c0,3.3,2.7,5.9,5.9,5.9c3.3,0,5.9-2.7,5.9-5.9
			C129.1,59.5,126.4,56.8,123.1,56.8z"/>
		<path id="Path_198" class="st2" d="M125.2,118c-4.1,0-7.4,3.3-7.4,7.4s3.3,7.4,7.4,7.4c4.1,0,7.4-3.3,7.4-7.4
			C132.6,121.3,129.3,118,125.2,118z"/>
		<path id="Path_199" class="st2" d="M51.4,94c-3.3,0-5.9,2.7-5.9,5.9c0,3.3,2.7,5.9,5.9,5.9c3.3,0,5.9-2.7,5.9-5.9
			C57.3,96.6,54.7,94,51.4,94z"/>
	</g>
</g>
<g id="Layer_10">
</g>
</svg>
