<svg width="100" height="144" viewBox="0 0 100 144" fill="none" xmlns="http://www.w3.org/2000/svg">
<path d="M50 0C35.0063 -2.27713e-07 20.6268 7.58585 10.0247 21.0885C-0.577434 34.5911 -2.09967 50.6666 2.33436 72C10.0939 90.6667 8.02375 88.9943 23.3959 109.333C34.481 124 40.0234 130.667 50 144L50 0Z" fill="#F28E00"/>
<path d="M50 0C64.9936 -2.27713e-07 79.3732 7.58515 89.9753 21.0878C100.577 34.5904 102.1 50.6662 97.6656 71.9996C89.9061 90.6663 91.9763 88.9939 76.6041 109.333C65.5191 124 59.9765 130.667 50 144L50 0Z" fill="#BEBDBD"/>
<path d="M75.5556 48.7059C75.5556 62.7404 64.1139 74.1177 50 74.1177C35.8861 74.1177 24.4444 62.7404 24.4444 48.7059C24.4444 34.6714 35.8861 23.2941 50 23.2941C64.1139 23.2941 75.5556 34.6714 75.5556 48.7059Z" fill="#FFFDFD"/>
</svg>
