<svg width="110" height="138" viewBox="0 0 110 138" fill="none" xmlns="http://www.w3.org/2000/svg">
<path d="M54 138L20.4979 104.617C10.7375 91.6307 7.61388e-07 72.3103 1.14537e-06 53.945C2.27672e-06 10.1051 2.2846e-06 24.8741 1.14537e-06 9.96352C31.3069 21.4216 35.7106 22.4179 54 0V68.7534V138Z" fill="#BEBDBD"/>
<path d="M54 138L88.7429 104.617C98.8648 91.6307 110 72.3103 110 53.945C110 10.1051 110 24.8741 110 9.96352C77.5335 21.4216 72.9668 22.4179 54 0V68.7534V138Z" fill="#F28E00"/>
<circle cx="54" cy="60" r="9" fill="black"/>
<path d="M49.4944 68.3648C51.3112 64.5885 56.6888 64.5885 58.5056 68.3648L63.5418 78.8322C65.1389 82.1517 62.7199 86 59.0361 86H48.9638C45.2801 86 42.8611 82.1517 44.4582 78.8322L49.4944 68.3648Z" fill="black"/>
</svg>
