<svg width="114" height="144" viewBox="0 0 114 144" fill="none" xmlns="http://www.w3.org/2000/svg">
<path d="M13.5556 9.86301L24.0185 0H114V144H1V21.6986L13.5556 9.86301Z" fill="#BEBDBD"/>
<path d="M83.9382 117.225C82.9513 116.805 81.7868 117.191 81.2551 118.15C80.7277 119.1 81.0084 120.281 81.8706 120.9C80.8164 121.024 79.9991 121.921 80 123.008C80.001 124.18 80.9515 125.129 82.123 125.128V125.128C82.2395 125.128 82.283 125.28 82.1839 125.342V125.342C81.1877 125.958 80.8798 127.266 81.4962 128.262C82.0729 129.194 83.2546 129.523 84.2203 129.057C83.7996 130.043 84.1841 131.208 85.1423 131.741C86.0926 132.269 87.2734 131.989 87.8933 131.128C88.0165 132.182 88.9127 133 90 133C91.1715 133 92.1212 132.05 92.1212 130.879V130.879C92.1212 130.755 92.2832 130.709 92.3483 130.814V130.814C92.9656 131.81 94.2731 132.117 95.2689 131.499C96.2006 130.922 96.5291 129.74 96.0617 128.775C97.0486 129.194 98.2132 128.809 98.7449 127.85C99.2723 126.9 98.9916 125.719 98.1295 125.1C99.1836 124.976 100.001 124.079 100 122.992C99.999 121.82 99.0485 120.871 97.877 120.872L97.47 120.872L97.8161 120.658C98.8123 120.042 99.1202 118.735 98.5038 117.738C97.927 116.806 96.7454 116.477 95.7797 116.943C96.2004 115.957 95.8159 114.792 94.8578 114.259C93.9074 113.731 92.7266 114.011 92.1068 114.872C91.9836 113.818 91.0873 113 90 113C88.8285 113 87.8788 113.95 87.8788 115.121V115.121C87.8788 115.245 87.7168 115.291 87.6517 115.186V115.186C87.0345 114.19 85.7269 113.883 84.7312 114.501C83.7996 115.078 83.4711 116.26 83.9382 117.225Z" stroke="#F28E00" stroke-width="4"/>
<circle cx="90" cy="123" r="9.5" fill="#F28E00" stroke="white"/>
<path d="M85 122.667L89.2964 126.39C89.6928 126.734 90.2874 126.713 90.6584 126.342L97 120" stroke="white" stroke-linejoin="round"/>
<path d="M22.2726 20.8441L22.7843 20.8429L22.7856 20.3601L22.8302 4.15071L22.8334 2.97486L21.9522 3.80631L4.7282 20.0578L3.84699 20.8892L5.09321 20.8862L22.2726 20.8441Z" stroke="#FFFDFD"/>
<rect x="35.5" y="9.5" width="64" height="5" rx="1.5" stroke="white"/>
<rect x="15.75" y="52.75" width="63.5" height="1.5" rx="0.75" stroke="white" stroke-width="1.5"/>
<rect x="16" y="97" width="63" height="2" rx="1" stroke="white" stroke-width="2"/>
<rect x="15.75" y="113.75" width="39.5" height="1.5" rx="0.75" stroke="white" stroke-width="1.5"/>
<rect x="16" y="69" width="63" height="2" rx="1" stroke="white" stroke-width="2"/>
<rect x="16" y="82" width="63" height="2" rx="1" stroke="white" stroke-width="2"/>
</svg>
